<svg width="57" height="56" viewBox="0 0 57 56" fill="none" xmlns="http://www.w3.org/2000/svg">
<path d="M56.6272 24.4964C56.4961 23.8564 55.9194 23.3555 55.2661 23.3555C47.3414 23.3555 39.4167 23.3555 31.492 23.4241C30.9408 23.4926 30.4584 23.8354 30.1827 24.3152C27.1017 29.5597 27.0819 29.5935 29.5825 35.107C29.6141 35.1766 29.664 35.2548 29.686 35.328C29.7238 35.4535 29.8272 35.5292 29.9301 35.6104C30.3723 35.9596 30.8633 36.4489 31.3542 36.4489C34.1795 36.5174 37.0049 36.5174 39.8991 36.5174H41.2078C42.0303 36.5174 42.5151 37.3574 42.0353 38.0256C38.1763 42.0701 33.4215 44.4008 27.7709 44.1266C22.0185 43.8635 18.2938 40.3753 15.0821 36.1634C14.8109 35.8078 14.5076 35.4771 14.2167 35.1373C12.6098 33.2607 12.1832 30.8411 10.9182 30.5285C10.5809 30.4451 9.99484 30.2306 9.24624 29.9342C4.55758 28.0781 -0.34527 31.1035 1.14313 35.9215C2.91477 41.6564 6.84384 47.617 13.2997 51.5988C23.7741 58.1797 37.2116 57.2886 46.7901 49.5422C55.064 42.6832 58.1443 31.9026 56.6272 24.4964ZM21.0866 15.2664C23.2917 14.3752 25.6347 13.6212 27.9776 13.4841C32.4871 13.1915 36.2992 14.4944 39.4637 17.1706C41.8434 19.1832 45.0372 20.3213 47.9516 19.2168C51.5707 17.8453 53.3808 13.6641 50.9988 10.6137C45.5263 3.60588 36.7444 -0.494956 27.3574 0.047958C20.2148 0.403229 14.2054 2.86274 9.27316 7.37084C6.53326 9.87514 7.97778 13.819 11.3013 15.4721C14.6779 17.1173 17.7789 16.6374 21.0866 15.2664ZM14.1266 19.9965C14.3935 20.1027 14.7844 19.8387 15.1392 19.6188C15.3091 19.5134 15.4012 19.3098 15.3524 19.1159C15.3184 18.9805 15.2201 18.8704 15.0894 18.8212C11.5067 17.4738 7.92403 16.0629 4.34135 14.718C4.02964 14.6146 3.60041 14.784 3.20134 14.9324C2.98577 15.0125 2.84207 15.2274 2.86508 15.4562C2.88296 15.6341 2.9993 15.7869 3.16612 15.8514C6.79988 17.2559 10.4961 18.6588 14.1266 19.9965ZM0.826924 24.5894C4.41223 26.0026 8.06394 27.4158 11.7169 28.7642C11.8435 28.8109 11.9855 28.7866 12.0894 28.7004C12.2313 28.5828 12.268 28.3798 12.1924 28.2117C11.9983 27.7803 11.8444 27.3059 11.508 27.1944C7.98736 25.78 4.33365 24.4318 0.742977 23.0847C0.622083 23.0393 0.48702 23.0527 0.377365 23.1209C0.173135 23.2479 0.11718 23.523 0.228568 23.7362C0.427548 24.1169 0.569568 24.487 0.826924 24.5894ZM2.6875 18.8997C5.85738 20.065 9.09617 21.299 12.266 22.5329C13.5751 23.091 12.8321 21.172 11.5007 20.6693L4.49816 18.0256C3.16252 17.5213 1.33241 18.4503 2.6875 18.8997ZM1.51603 21.6417C5.03406 23.0551 8.55209 24.4023 12.0701 25.6835C12.1915 25.7277 12.3271 25.7042 12.4266 25.6217C12.5702 25.5026 12.6017 25.2928 12.5234 25.1234C12.3356 24.7169 12.1811 24.2185 11.8526 24.1096C8.38635 22.7573 4.92012 21.4718 1.52 20.1214C1.42915 20.0853 1.32774 20.0865 1.23782 20.1249C1.04916 20.2053 0.959364 20.425 1.01783 20.6216C1.14683 21.0554 1.24808 21.5351 1.51603 21.6417Z" fill="url(#paint0_linear_2_2583)"/>
<defs>
<linearGradient id="paint0_linear_2_2583" x1="20.9388" y1="-3.46392" x2="3.56417" y2="50.3951" gradientUnits="userSpaceOnUse">
<stop stop-color="#2D2F3F" stop-opacity="0.22"/>
<stop offset="1" stop-color="#42798A"/>
</linearGradient>
</defs>
</svg>
