<svg width="18" height="18" viewBox="0 0 18 18" fill="none" xmlns="http://www.w3.org/2000/svg">
<path d="M11.1941 14.3645C11.1809 14.3645 11.1544 14.3645 11.1412 14.3645H11.1148C11.1148 14.3645 11.0091 14.3508 10.7183 14.5148L10.5729 14.5968L10.4276 14.5695L8.98704 16.0592L7.55972 14.5831L7.44078 14.6105L7.2954 14.5285C7.01787 14.3645 6.89892 14.3781 6.89892 14.3781H6.87249C6.85927 14.3781 6.83284 14.3781 6.81963 14.3781C6.77998 14.8975 6.72712 15.2665 6.58174 15.4989L9.00025 18L11.432 15.4852C11.2866 15.2392 11.2205 14.8702 11.1941 14.3645ZM8.97382 0L6.51566 2.54214L6.81963 4.1549L8.97382 1.92711L11.1544 4.18223L11.4584 2.56948L8.97382 0ZM14.1016 5.30296L13.7976 6.91572L15.7932 8.9795L15.1589 9.63554L15.0003 10.4692C15.1192 10.5376 15.3571 10.6743 15.8461 10.8656L17.6699 8.9795L14.1016 5.30296ZM3.10595 8.00911L4.17644 6.88838L3.87248 5.27563L0.290964 8.99317L2.11476 10.8793C2.61697 10.6879 2.86807 10.5513 2.9738 10.4829L2.82842 9.69021L2.15441 8.99317L3.10595 8.00911Z" fill="#474754"/>
<path d="M5.7357 14.3781L5.90751 15.3212L6.10575 15.2802C6.22469 15.2528 6.30399 14.8428 6.34364 14.0501C6.34364 14.0501 6.37007 13.9954 6.46258 13.9544C6.54188 13.9271 6.77976 13.8861 6.77976 13.8861C6.96478 13.8451 7.20267 13.9134 7.49342 14.0911L7.75774 14.0364L7.74452 13.9681C7.66523 13.5854 7.62558 13.3121 7.61236 13.2574C7.95598 12.9704 8.04849 12.7517 8.00884 12.5194C8.00884 12.5194 8.11457 12.492 8.20708 12.4783L8.15422 12.1777C8.00884 12.0137 7.82382 11.877 7.82382 11.877L5.93394 1.94076L6.05289 1.14805L6.02645 1.01138C5.85465 1.05238 5.74892 0.956708 5.70927 0.724362L5.57711 0.751697C5.14099 0.847369 5.1542 0.820034 4.85024 0.833702C4.0705 1.24372 3.68724 1.55808 3.70045 1.70842C3.72689 1.95443 3.75332 2.14577 3.79297 2.36445L4.652 6.91571C4.77094 7.54441 4.45376 7.95443 3.50222 8.33712C3.2379 8.43279 3.06609 8.5148 3.07931 8.61047L3.44935 10.5786C3.489 10.8246 2.6564 11.2209 0.925114 11.795C0.5815 11.8633 0.370045 11.7403 0.370045 11.7403L0 11.8223L0.568284 14.8018L0.832602 14.7471C0.925114 14.8155 0.925114 14.8975 0.951545 15.0068L1.01763 15.3348C1.36124 15.3622 1.34802 15.4168 1.69164 15.3348C2.15419 15.2255 4.38768 13.6947 4.46698 13.6674C4.53306 13.6401 4.5727 13.6264 4.7313 13.6127C5.1542 13.5854 5.62998 14.0364 5.7357 14.3781ZM4.25552 10.4966C3.83261 10.4282 3.59473 10.2369 3.54186 9.94987L3.30398 8.6788L3.60794 8.54213L3.93834 8.47379C4.38768 8.46012 4.63878 8.6378 4.71808 9.02049L4.78416 9.34851C4.83702 9.62186 4.87667 9.82687 4.58592 9.93621C4.58592 9.93621 4.41411 9.97721 4.24231 9.97721C3.97799 9.99088 3.97799 9.97721 3.67402 9.90887L3.71367 10.0592C3.97799 10.3326 4.652 10.3052 4.87667 10.2642C4.87667 10.2642 4.79738 10.3872 4.62557 10.4419C4.48019 10.4829 4.25552 10.4966 4.25552 10.4966Z" fill="#474754"/>
<path d="M13.2687 13.6128C13.4141 13.6264 13.4669 13.6401 13.533 13.6674C13.6123 13.6948 15.8458 15.2392 16.3083 15.3348C16.652 15.4169 16.6387 15.3622 16.9824 15.3348L17.0484 15.0068C17.0616 14.9112 17.0616 14.8292 17.1674 14.7471L17.4317 14.8018L18 11.8223L17.6167 11.7403C17.6167 11.7403 17.4185 11.877 17.0616 11.795C15.3304 11.2346 14.4845 10.8246 14.5374 10.5786L14.9075 8.61048C14.9207 8.5148 14.7489 8.44647 14.4845 8.33713C13.533 7.96811 13.2158 7.54442 13.3348 6.91571L14.1938 2.36446C14.2334 2.14578 14.2599 1.95444 14.2863 1.70842C14.2995 1.55808 13.9163 1.24373 13.1365 0.833709C12.8193 0.820042 12.8326 0.847376 12.4096 0.765372L12.2775 0.738037C12.2378 0.956716 12.1321 1.05239 11.9603 1.02505L11.9339 1.16173L12.0528 1.95444L10.1629 11.8633C10.1629 11.8633 9.99114 12 9.83255 12.164L9.77968 12.4784C9.87219 12.492 9.97792 12.5194 9.97792 12.5194C9.93827 12.7517 10.0308 12.9704 10.3744 13.2574C10.3612 13.3121 10.3083 13.5718 10.2422 13.9681L10.229 14.0364L10.4933 14.0911C10.7841 13.9134 11.022 13.8451 11.207 13.8861C11.207 13.8861 11.4581 13.9134 11.5242 13.9544C11.6167 13.9954 11.6431 14.0501 11.6431 14.0501C11.6828 14.8428 11.7621 15.2528 11.881 15.2802L12.0793 15.3212L12.2511 14.3781C12.3436 14.0364 12.8326 13.5854 13.2687 13.6128ZM13.718 10.4966C13.718 10.4966 13.4934 10.4829 13.3612 10.4419C13.1894 10.3872 13.1101 10.2642 13.1101 10.2642C13.3348 10.3052 14.0088 10.3326 14.2731 10.0592L14.3127 9.90888C14.0088 9.97722 14.0088 9.99088 13.7445 9.97722C13.5726 9.96355 13.4008 9.93621 13.4008 9.93621C13.1101 9.82688 13.1497 9.62186 13.2026 9.34852L13.2687 9.0205C13.3348 8.65148 13.5991 8.4738 14.0484 8.4738L14.3788 8.54214L14.6828 8.67881L14.4449 9.94988C14.3788 10.2369 14.1409 10.4282 13.718 10.4966Z" fill="#474754"/>
<path d="M2.64319 8.47895L3.10609 7.99987C2.89448 8.10937 2.6961 8.24625 2.64319 8.47895Z" fill="#474754"/>
<path d="M14.8148 7.98181L15.3438 8.52934C15.3173 8.24189 15.0528 8.07763 14.8148 7.98181Z" fill="#474754"/>
</svg>
