<svg width="41" height="33" viewBox="0 0 41 33" fill="none" xmlns="http://www.w3.org/2000/svg">
<path d="M39.4422 25.2204L33.7574 21.9716L38.1763 8.715C38.3603 8.16395 38.1935 7.55541 37.7546 7.17495C37.3157 6.7945 36.6909 6.71591 36.1695 6.97562L26.0859 12.0174L21.8626 1.03491C21.6489 0.480036 21.116 0.113953 20.5209 0.113953C19.9258 0.113953 19.3929 0.480036 19.1792 1.03491L14.9769 11.9618L5.87565 6.99766C5.35144 6.71016 4.70552 6.77916 4.25319 7.16729C3.7999 7.55445 3.63314 8.18216 3.83344 8.74374L8.23602 21.0708L1.54973 25.2491C1.13094 25.5117 0.875061 25.9727 0.875061 26.4681C0.875061 26.9636 1.13094 27.4245 1.55069 27.6871L9.21735 32.4788C9.44544 32.6216 9.70994 32.6973 9.97923 32.6973H15.0392L16.2084 29.8223L13.504 28.1998C12.6482 27.6862 12.7498 26.4145 13.6765 26.0436L16.2084 25.0306L15.1849 21.9601C14.8782 21.0401 15.8816 20.2351 16.7134 20.7344L19.0834 22.1556L19.9957 18.9634C20.2842 17.9533 21.7159 17.9533 22.0044 18.9634L22.9167 22.1556L24.9848 20.7775C25.9019 20.1661 27.0184 21.2078 26.4712 22.1652L24.8334 25.0306L27.8186 26.0254C28.8392 26.3656 28.9389 27.7695 27.9767 28.2506L24.8334 29.8223L26.7501 32.6973H30.1042C30.3486 32.6973 30.5891 32.635 30.8029 32.5162L39.4279 27.7245C39.8811 27.4725 40.1639 26.9962 40.1667 26.4767C40.1696 25.9573 39.8927 25.4772 39.4422 25.2204Z" fill="url(#paint0_linear_962_87)"/>
<defs>
<linearGradient id="paint0_linear_962_87" x1="0.875061" y1="0.113953" x2="38.2313" y2="39.03" gradientUnits="userSpaceOnUse">
<stop stop-color="#573E30"/>
<stop offset="1" stop-color="#FFBC6D"/>
</linearGradient>
</defs>
</svg>
