<svg width="16" height="18" viewBox="0 0 16 18" fill="none" xmlns="http://www.w3.org/2000/svg">
<path d="M13.4928 0H2.50718C1.12919 0 0 1.11789 0 2.48211V15.5179C0 16.8821 1.12919 18 2.50718 18H13.4928C14.8708 18 16 16.8821 16 15.5179V2.48211C16 1.11789 14.8708 0 13.4928 0ZM11.2919 13.7747H4.70813C4.2488 13.7747 3.86603 13.3958 3.86603 12.9411C3.86603 12.4863 4.2488 12.1074 4.70813 12.1074H11.2727C11.7321 12.1074 12.1148 12.4863 12.1148 12.9411C12.1148 13.3958 11.7512 13.7747 11.2919 13.7747ZM11.2919 9.83368H4.70813C4.2488 9.83368 3.86603 9.45474 3.86603 9C3.86603 8.54526 4.2488 8.16632 4.70813 8.16632H11.2727C11.7321 8.16632 12.1148 8.54526 12.1148 9C12.1148 9.45474 11.7512 9.83368 11.2919 9.83368ZM11.2919 5.87368H4.70813C4.2488 5.87368 3.86603 5.49474 3.86603 5.04C3.86603 4.58526 4.2488 4.20632 4.70813 4.20632H11.2727C11.7321 4.20632 12.1148 4.58526 12.1148 5.04C12.1148 5.49474 11.7512 5.87368 11.2919 5.87368Z" fill="#474754"/>
</svg>
