<svg width="18" height="18" viewBox="0 0 18 18" fill="none" xmlns="http://www.w3.org/2000/svg">
<path d="M16.0035 14.6236C15.6177 15.102 15.1849 15.5407 14.7118 15.9332L11.8803 13.1057C12.3894 12.754 12.8276 12.3097 13.172 11.7961L16.0035 14.6236Z" fill="#FFBD98"/>
<path d="M13.2938 16.9085C11.9746 17.6248 10.4969 18 8.99533 18C7.49374 18 6.01603 17.6248 4.69683 16.9085L7.72921 13.8804C8.14378 13.9849 8.56972 14.0377 8.9973 14.0377C9.42228 14.0377 9.84561 13.9848 10.2575 13.8804L13.2938 16.9085Z" fill="#FFBD98"/>
<path d="M6.1068 13.1057L3.2792 15.9293C2.80612 15.5382 2.37339 15.1008 1.98749 14.6236L4.81902 11.7961C5.16449 12.3076 5.60097 12.7514 6.1068 13.1057Z" fill="#FFBD98"/>
<path d="M18 8.98815C18.0011 10.457 17.64 11.9035 16.9486 13.2L13.8965 10.1483C13.9853 9.76794 14.0303 9.37869 14.0304 8.98815C14.0313 8.56216 13.9771 8.13784 13.8689 7.72577L16.9052 4.69371C17.6247 6.01098 18.0012 7.48768 18 8.98815Z" fill="#FFBD98"/>
<path d="M15.948 3.27797L13.1204 6.1016C12.7646 5.59745 12.3203 5.16178 11.809 4.81563L14.6406 1.98806C15.1182 2.37359 15.5562 2.80569 15.948 3.27797Z" fill="#FFBD98"/>
<path d="M13.2073 1.04426L10.1552 4.09598C9.39234 3.91764 8.59852 3.91764 7.83564 4.09598L4.77963 1.04819C6.07726 0.359914 7.52415 0 8.99346 0C10.4628 0 11.9097 0.359914 13.2073 1.04819V1.04426Z" fill="#FFBD98"/>
<path d="M6.18154 4.81956C5.66996 5.1653 5.2256 5.60105 4.87013 6.10553L2.04253 3.2819C2.43516 2.80917 2.87306 2.37584 3.35 1.98806L6.18154 4.81956Z" fill="#FFBD98"/>
<path d="M3.96442 8.98814C3.96263 9.3775 4.00758 9.76567 4.09832 10.1443L1.04231 13.1961C0.350535 11.8883 -0.00743932 10.4303 0.000117195 8.95126C0.00767371 7.47226 0.380528 6.01797 1.08563 4.7173L4.12195 7.74936C4.01894 8.15431 3.96604 8.57034 3.96442 8.98814Z" fill="#FFBD98"/>
<path d="M12.3528 8.98814C12.3528 9.07466 12.3528 9.16511 12.3528 9.25163C12.3166 9.71619 12.1824 10.1678 11.959 10.5769C11.6606 11.127 11.2147 11.5832 10.6712 11.8944C10.2427 12.1428 9.76332 12.2907 9.2692 12.3269C9.18256 12.3269 9.09198 12.3269 9.00534 12.3269C8.9187 12.3269 8.82418 12.3269 8.73361 12.3269C8.2392 12.2894 7.7598 12.1401 7.33162 11.8904C6.78946 11.5802 6.34586 11.1235 6.05172 10.573C5.82836 10.1681 5.6941 9.72032 5.65791 9.25949C5.65791 9.16773 5.65791 9.07728 5.65791 8.98814C5.65702 8.85001 5.66624 8.712 5.68547 8.57521C5.73928 8.13463 5.88124 7.70934 6.10292 7.32464C6.41448 6.78189 6.87132 6.33658 7.4222 6.03866C7.78893 5.84092 8.18978 5.71417 8.60365 5.66506C8.74196 5.64598 8.88146 5.63678 9.02109 5.63754C9.15286 5.63722 9.28447 5.64642 9.41491 5.66506C9.82946 5.71097 10.2309 5.83792 10.5964 6.03866C11.1479 6.33351 11.6061 6.77613 11.9196 7.31677C12.146 7.70535 12.2894 8.13648 12.341 8.58308C12.3549 8.71762 12.3589 8.85301 12.3528 8.98814Z" fill="#FFBD98"/>
</svg>
