<svg width="40" height="39" viewBox="0 0 40 39" fill="none" xmlns="http://www.w3.org/2000/svg">
<path d="M34.9725 4.49389C29.2991 -1.16028 20.0991 -1.16028 14.4641 4.49389C10.4967 8.42306 9.30832 14.0772 10.8417 19.0606L1.83332 28.0689C1.20082 28.7206 0.759985 30.0047 0.894152 30.9247L1.46915 35.1031C1.67999 36.4831 2.96415 37.7864 4.34415 37.9781L8.52248 38.5531C9.44248 38.6872 10.7267 38.2656 11.3783 37.5947L12.95 36.0231C13.3333 35.6589 13.3333 35.0456 12.95 34.6622L9.23165 30.9439C8.67582 30.3881 8.67582 29.4681 9.23165 28.9122C9.78748 28.3564 10.7075 28.3564 11.2633 28.9122L15.0008 32.6497C15.365 33.0139 15.9783 33.0139 16.3425 32.6497L20.4058 28.6056C25.37 30.1581 31.0241 28.9506 34.9725 25.0214C40.6266 19.3672 40.6266 10.1481 34.9725 4.49389ZM24.8333 19.4056C22.1883 19.4056 20.0416 17.2589 20.0416 14.6139C20.0416 11.9689 22.1883 9.82222 24.8333 9.82222C27.4783 9.82222 29.625 11.9689 29.625 14.6139C29.625 17.2589 27.4783 19.4056 24.8333 19.4056Z" fill="url(#paint0_linear_962_69)"/>
<defs>
<linearGradient id="paint0_linear_962_69" x1="0.870026" y1="0.253265" x2="44.3819" y2="37.861" gradientUnits="userSpaceOnUse">
<stop stop-color="#573E30"/>
<stop offset="1" stop-color="#FFBC6D"/>
</linearGradient>
</defs>
</svg>
