<svg width="47" height="47" viewBox="0 0 47 47" fill="none" xmlns="http://www.w3.org/2000/svg">
<path fill-rule="evenodd" clip-rule="evenodd" d="M31.207 16.1852C31.207 20.6888 27.6168 24.2999 23.1392 24.2999C18.6617 24.2999 15.0714 20.6888 15.0714 16.1852C15.0714 11.6799 18.6617 8.07227 23.1392 8.07227C27.6168 8.07227 31.207 11.6799 31.207 16.1852ZM23.1392 38.7389C16.5628 38.7389 10.9474 37.6963 10.9474 33.5259C10.9474 29.3537 16.5267 28.2731 23.1392 28.2731C29.7156 28.2731 35.331 29.3157 35.331 33.4879C35.331 37.6583 29.7517 38.7389 23.1392 38.7389ZM34.6547 16.3315C34.6547 18.6273 33.9699 20.7661 32.7686 22.544C32.645 22.727 32.7549 22.9738 32.9728 23.0118C33.2732 23.0636 33.5838 23.0929 33.8996 23.1016C37.0488 23.1844 39.8753 21.1458 40.6562 18.0767C41.8129 13.5179 38.4166 9.42516 34.0918 9.42516C33.6215 9.42516 33.1719 9.47522 32.7343 9.56498C32.6742 9.57879 32.6107 9.60641 32.5764 9.65992C32.5352 9.72552 32.5661 9.81355 32.6073 9.87051C33.9064 11.702 34.6547 13.9356 34.6547 16.3315ZM39.8702 26.3046C41.9863 26.7206 43.3781 27.5699 43.9547 28.8041C44.4421 29.8174 44.4421 30.9929 43.9547 32.0044C43.0726 33.9187 40.2289 34.5332 39.1237 34.692C38.8954 34.7266 38.7118 34.5281 38.7358 34.2985C39.3004 28.994 34.8092 26.479 33.6473 25.9007C33.5975 25.8748 33.5872 25.8351 33.5924 25.8109C33.5958 25.7937 33.6164 25.7661 33.6542 25.7609C36.1684 25.7143 38.8714 26.0595 39.8702 26.3046ZM12.5747 23.1015C12.8905 23.0928 13.1994 23.0652 13.5014 23.0117C13.7194 22.9737 13.8292 22.7269 13.7057 22.5439C12.5043 20.766 11.8196 18.6272 11.8196 16.3314C11.8196 13.9355 12.5678 11.7019 13.867 9.87042C13.9082 9.81345 13.9374 9.72542 13.8979 9.65982C13.8636 9.60804 13.7983 9.57869 13.74 9.56488C13.3006 9.47512 12.851 9.42507 12.3808 9.42507C8.05597 9.42507 4.65964 13.5178 5.81806 18.0766C6.59893 21.1457 9.42549 23.1843 12.5747 23.1015ZM12.8811 25.81C12.8862 25.8359 12.8759 25.8739 12.8279 25.9015C11.6643 26.4798 7.17302 28.9948 7.73765 34.2975C7.76167 34.5289 7.57976 34.7256 7.3515 34.6928C6.24628 34.534 3.40255 33.9195 2.52043 32.0052C2.03132 30.9919 2.03132 29.8182 2.52043 28.8049C3.09707 27.5707 4.48719 26.7214 6.60325 26.3037C7.60378 26.0603 10.3051 25.7151 12.821 25.7617C12.8588 25.7668 12.8776 25.7945 12.8811 25.81Z" fill="url(#paint0_linear_962_74)"/>
<defs>
<linearGradient id="paint0_linear_962_74" x1="2.1536" y1="8.07227" x2="36.8268" y2="49.259" gradientUnits="userSpaceOnUse">
<stop stop-color="#573E30"/>
<stop offset="1" stop-color="#FFBC6D"/>
</linearGradient>
</defs>
</svg>
