<svg width="18" height="18" viewBox="0 0 18 18" fill="none" xmlns="http://www.w3.org/2000/svg">
<path fill-rule="evenodd" clip-rule="evenodd" d="M7.09785 13.0117H10.9202V5.61969H13.3229L8.99057 0L4.67709 5.61969L7.09785 5.65846V13.0117ZM11.9985 9.36831V10.284C13.851 9.30554 16.102 7.272 16.9926 4.80462C17.8824 2.34185 15.6134 1.18062 15.6134 1.18062C16.8006 4.21662 11.9985 9.36831 11.9985 9.36831ZM17.633 5.53754C15.6751 9.33323 11.9985 10.8609 11.9985 10.8609V11.7138C15.4582 10.4206 17.1701 8.72123 17.7667 7.37723C18.3607 6.036 17.633 5.53754 17.633 5.53754ZM11.9985 12.2169V12.8797C14.9293 12.4431 16.4312 11.3012 17.2095 10.5065C17.9844 9.71077 17.4375 8.86523 17.4375 8.86523C14.8427 11.7997 11.9985 12.2169 11.9985 12.2169ZM9.11401 18C14.673 18 16.822 11.9132 16.822 11.9132C14.1733 13.4603 11.9985 13.4603 11.9985 13.4603C11.101 16.3597 9.11401 18 9.11401 18ZM10.9382 13.4908H7.09099C7.09099 13.4908 7.98849 16.6357 8.93657 16.6357C9.87778 16.6357 10.9382 13.4908 10.9382 13.4908ZM6.00148 10.284V9.36831C6.00148 9.36831 1.19939 4.21662 2.39005 1.18062C2.39005 1.18062 0.121019 2.34185 1.0108 4.80462C1.89802 7.26738 4.14476 9.30554 6.00148 10.284ZM6.00148 11.7185V10.8646C6.00148 10.8646 2.32491 9.33692 0.367038 5.54123C0.367038 5.54123 -0.360733 6.04062 0.233313 7.38462C0.826503 8.72492 2.53835 10.4243 6.00148 11.7185ZM6.00148 12.2169C6.00148 12.2169 3.15726 11.7997 0.565911 8.86523C0.565911 8.86523 0.015582 9.71077 0.793929 10.5065C1.56799 11.3012 3.07411 12.4394 6.00491 12.8797V12.2169H6.00148ZM6.00148 13.4603C6.00148 13.4603 3.82674 13.4603 1.1771 11.9132C1.1771 11.9132 3.32356 18 8.88599 18C8.88599 18 6.89898 16.3597 6.00148 13.4603Z" fill="#474754"/>
</svg>
