<svg width="34" height="40" viewBox="0 0 34 40" fill="none" xmlns="http://www.w3.org/2000/svg">
<path d="M22.5562 0.322327C21.7617 0.322327 21.1187 0.965368 21.1187 1.75983V4.26235C21.8106 4.46264 22.4709 4.69314 23.0353 4.96051C23.3669 5.11768 23.6851 5.27411 23.9937 5.43032V1.75983C23.9937 0.965368 23.3506 0.322327 22.5562 0.322327ZM23.9937 5.43032V14.2182C23.9937 14.3178 23.9771 14.4124 23.9656 14.5083C23.8209 15.6937 22.8216 16.614 21.5978 16.614C20.2744 16.614 19.202 15.5416 19.202 14.2182C19.202 13.0595 20.0252 12.0933 21.1187 11.871V4.26235C18.4689 3.49568 15.3383 3.20116 15.1946 3.19733C14.6694 3.17529 14.1675 3.4663 13.9068 3.92918L1.1771 26.5679C0.917389 27.0308 0.934564 27.6019 1.22015 28.0485C1.33706 28.2306 4.13465 32.5401 9.07773 35.3202C14.0227 38.1003 19.1595 38.2522 19.3761 38.257H19.4098C19.9282 38.257 20.407 37.9765 20.662 37.5233L33.3917 14.8845C33.6524 14.4226 33.6371 13.8534 33.3505 13.4058C33.2489 13.2487 31.1283 10.002 27.3553 7.32827C27.2432 7.24298 25.8538 6.37236 23.9937 5.43032ZM33.577 19.4459L22.7508 38.6987C22.5582 39.0408 22.3146 39.3411 22.0377 39.6028C27.9257 39.4897 32.5906 37.1644 32.7909 37.0628C33.2729 36.8184 33.577 36.3221 33.577 35.7807V19.4459ZM16.8155 19.9719C17.0915 19.9493 17.3759 20.0057 17.6353 20.1516C18.3263 20.5416 18.5719 21.4175 18.1838 22.1094L15.1684 27.472C14.9048 27.9406 14.4165 28.2057 13.9143 28.2057C13.6757 28.2057 13.4338 28.1459 13.2105 28.0204C12.5186 27.6313 12.273 26.7545 12.6621 26.0626L15.6775 20.7C15.9207 20.2676 16.3555 20.0096 16.8155 19.9719Z" fill="url(#paint0_linear_962_93)"/>
<defs>
<linearGradient id="paint0_linear_962_93" x1="0.993515" y1="0.322327" x2="43.674" y2="30.9074" gradientUnits="userSpaceOnUse">
<stop stop-color="#573E30"/>
<stop offset="1" stop-color="#FFBC6D"/>
</linearGradient>
</defs>
</svg>
